<svg id="Capa_1" enable-background="new 0 0 512 512" height="512" viewBox="0 0 512 512" width="512" xmlns="http://www.w3.org/2000/svg" xmlns:xlink="http://www.w3.org/1999/xlink"><linearGradient id="SVGID_1_" gradientUnits="userSpaceOnUse" x1="256" x2="256" y1="345.561" y2="16.147"><stop offset="0" stop-color="#c3ffe8"/><stop offset=".9973" stop-color="#f0fff4"/></linearGradient><linearGradient id="SVGID_2_" gradientUnits="userSpaceOnUse" x1="256" x2="256" y1="495.854" y2="165.854"><stop offset="0" stop-color="#00b59c"/><stop offset="1" stop-color="#9cffac"/></linearGradient><g id="Cloud_Computing_5_"><g><g><path d="m370.785 101.356c-21.152-50.771-71.719-85.21-127.383-85.21-66.914 0-123.809 48.853-135.498 113.701-59.033.44-107.904 48.59-107.904 107.711 0 59.546 49.311 108.003 108.695 108.003h42.305c8.291 0 15-6.709 15-15v-59.707c0-8.291-6.709-15-15-15h-1.963l31.963-47.959 31.963 47.959h-1.963c-8.291 0-15 6.709-15 15v59.707c0 8.291 6.709 15 15 15h90c8.291 0 15-6.709 15-15v-134.707h30v134.707c0 8.291 6.709 15 15 15h27.305c67.646 0 123.695-55.049 123.695-122.71 0-73.462-67.064-131.573-141.215-121.495z" fill="url(#SVGID_1_)"/></g></g><g><g><path d="m253.48 262.533-60-90c-5.566-8.35-19.395-8.35-24.961 0l-60 90c-3.076 4.6-3.369 10.518-.732 15.396 2.607 4.878 7.676 7.925 13.213 7.925h15v195c0 8.291 6.709 15 15 15h60c8.291 0 15-6.709 15-15v-195h15c5.537 0 10.605-3.047 13.213-7.925 2.637-4.878 2.344-10.796-.733-15.396zm150.733 121.245c-2.607-4.878-7.676-7.925-13.213-7.925h-15v-195c0-8.291-6.709-15-15-15h-60c-8.291 0-15 6.709-15 15v195h-15c-5.537 0-10.605 3.047-13.213 7.925-2.637 4.878-2.344 10.796.732 15.396l60 90c2.783 4.175 7.471 6.68 12.48 6.68s9.697-2.505 12.48-6.68l60-90c3.078-4.6 3.371-10.518.734-15.396z" fill="url(#SVGID_2_)"/></g></g></g></svg>